# xmcd CD database file
#
# Track frame offsets:
#	150
#	23747
#	46776
#	84537
#	105154
#	123803
#	141676
#	167696
#	185775
#	201014
#	210041
#	226405
#	243015
#	263987
#	282873
#	298355
#	317504
#	341439
#
# Disc length: 4784 seconds
#
# Revision: 0
# Processed by: cddbd v1.4PL0 Copyright (c) Steve Scherf et al.
# Submitted via: Feurio! 1.63 - http://www.feurio.com
#
DISCID=f912ae12
DTITLE=Tom Waits - Tales for the Audience
DYEAR=1999
DGENRE=Blues
TTITLE0=Shore Leave
TTITLE1=Pony
TTITLE2=Filipino Box Spring Hog
TTITLE3=Earth died screaming
TTITLE4=Going out West
TTITLE5=Strange Weather
TTITLE6=Cold Water
TTITLE7=Jersey Girl
TTITLE8=Picture in a Frame
TTITLE9=Cementary Polka
TTITLE10=Lucky Day
TTITLE11=Raindogs
TTITLE12=In the Collosseum
TTITLE13=All stripped down
TTITLE14=I don't wanna grow up
TTITLE15=Time
TTITLE16=Fishing in the Jailhouse
TTITLE17=House where nobody lives
EXTD=Chocolate Jesus live in Berlin 1999
EXTT0=
EXTT1=
EXTT2=
EXTT3=
EXTT4=
EXTT5=
EXTT6=
EXTT7=
EXTT8=
EXTT9=
EXTT10=
EXTT11=
EXTT12=
EXTT13=
EXTT14=
EXTT15=
EXTT16=
EXTT17=
PLAYORDER=
